/* XPM */
static char *noname[] = {
/* width height ncolors chars_per_pixel */
"14 15 3 1",
/* colors */
"  c Black",
". c #555555",
"X c None",
/* pixels */
".XXXXXXXXXXXXX",
".XXXXXXXXXXXXX",
".XXXXXXXXXXXXX",
".XXXXXXXXXXXXX",
".XXXXXXXXXXXXX",
".XXXXXXXXXXXXX",
".XXXXXXXXXXXXX",
".XXXXXXXXXXXXX",
".XXXXXXXXXXXXX",
".XXXXXXXXXXXXX",
".XXXXXXXXXXXXX",
".XXXXXXXXXXXXX",
".XXXXXXXXXXXXX",
"..............",
"X             "
};
