/* XPM */
static char *noname[] = {
/* width height ncolors chars_per_pixel */
"19 2 2 1",
/* colors */
"  c Black",
". c #555555",
/* pixels */
"...................",
"                   "
};
