/* XPM */
static char *noname[] = {
/* width height ncolors chars_per_pixel */
"2 19 3 1",
/* colors */
"  c Black",
". c #CCCCFF",
"X c #9999CC",
/* pixels */
"  ",
" .",
" .",
" .",
" .",
" .",
" .",
" .",
" .",
" .",
" .",
" .",
" .",
" .",
" .",
" .",
" .",
" X",
"  "
};
