/* XPM */
static char *noname[] = {
/* width height ncolors chars_per_pixel */
"14 15 2 1",
/* colors */
"  c Black",
". c None",
/* pixels */
" .............",
" .............",
" .............",
" .............",
" .............",
" .............",
" .............",
" .............",
" .............",
" .............",
" .............",
" .............",
" .............",
"              ",
".             "
};
