/* XPM */
static char *noname[] = {
/* width height ncolors chars_per_pixel */
"15 15 2 1",
/* colors */
"  c Black",
"X c None",
/* pixels */
"XXXXXXXXXXXXX  ",
"XXXXXXXXXXXXX  ",
"XXXXXXXXXXXXX  ",
"XXXXXXXXXXXXX  ",
"XXXXXXXXXXXXX  ",
"XXXXXXXXXXXXX  ",
"XXXXXXXXXXXXX  ",
"XXXXXXXXXXXXX  ",
"XXXXXXXXXXXXX  ",
"XXXXXXXXXXXXX  ",
"XXXXXXXXXXXXX  ",
"XXXXXXXXXXXXX  ",
"XXXXXXXXXXXXX  ",
"               ",
"               "
};
