/* XPM */
static char *noname[] = {
/* width height ncolors chars_per_pixel */
"6 19 2 1",
/* colors */
"  c White",
". c Black",
/* pixels */
"......",
"      ",
"      ",
"      ",
"      ",
"      ",
"      ",
"      ",
"      ",
"      ",
"      ",
"      ",
"      ",
"      ",
"      ",
"      ",
"      ",
"      ",
"......"
};
