/* XPM */
static char *noname[] = {
/* width height ncolors chars_per_pixel */
"7 19 2 1",
/* colors */
"  c White",
". c Black",
/* pixels */
".......",
"       ",
"       ",
"       ",
"       ",
"       ",
"       ",
"       ",
"       ",
"       ",
"       ",
"       ",
"       ",
"       ",
"       ",
"       ",
"       ",
"       ",
"......."
};
