/* XPM */
static char *noname[] = {
/* width height ncolors chars_per_pixel */
"2 19 2 1",
/* colors */
"  c Black",
". c White",
/* pixels */
"  ",
" .",
" .",
" .",
" .",
" .",
" .",
" .",
" .",
" .",
" .",
" .",
" .",
" .",
" .",
" .",
" .",
" .",
"  "
};
