/* XPM */
static char *noname[] = {
/* width height ncolors chars_per_pixel */
"3 19 3 1",
/* colors */
"  c Black",
"  c White",
"o c None",
/* pixels */
"XXo",
" XX",
" XX",
" XX",
" XX",
" XX",
" XX",
" XX",
" XX",
" XX",
" XX",
" XX",
" XX",
" XX",
" XX",
" XX",
" XX",
" XX",
"XXX"
};
