/* XPM */
static char *noname[] = {
/* width height ncolors chars_per_pixel */
"20 20 4 1",
/* colors */
"  c White",
". c #777777",
"X c #555555",
"o c None",
/* pixels */
"X  ..ooooooooooooooo",
"X  ..ooooooooooooooo",
"X  ..ooooooooooooooo",
"X  ..ooooooooooooooo",
"X  ..ooooooooooooooo",
"X  ..ooooooooooooooo",
"X  ..ooooooooooooooo",
"X  ..ooooooooooooooo",
"X  ..ooooooooooooooo",
"X  ..ooooooooooooooo",
"X  ..ooooooooooooooo",
"X  ..ooooooooooooooo",
"X  ..ooooooooooooooo",
"X  ..ooooooooooooooo",
"X  ..ooooooooooooooo",
"X  .................",
"X  .................",
"X                   ",
"X                   ",
"XXXXXXXXXXXXXXXXXXXX"
};
