/* XPM */
static char *noname[] = {
/* width height ncolors chars_per_pixel */
"20 20 5 1",
/* colors */
"  c Black",
". c #CCCCFF",
"X c #BBBBBB",
"o c #666699",
"O c None",
/* pixels */
"OOOOOOOOOOOOOOO .Xo ",
"OOOOOOOOOOOOOOO .Xo ",
"OOOOOOOOOOOOOOO .Xo ",
"OOOOOOOOOOOOOOO .Xo ",
"OOOOOOOOOOOOOOO .Xo ",
"OOOOOOOOOOOOOOO .Xo ",
"OOOOOOOOOOOOOOO .Xo ",
"OOOOOOOOOOOOOOO .Xo ",
"OOOOOOOOOOOOOOO .Xo ",
"OOOOOOOOOOOOOOO .Xo ",
"OOOOOOOOOOOOOOO .Xo ",
"OOOOOOOOOOOOOOO .Xo ",
"OOOOOOOOOOOOOOO .Xo ",
"OOOOOOOOOOOOOOO .Xo ",
"OOOOOOOOOOOOOOO .Xo ",
"                .Xo ",
".................Xo ",
"XXXXXXXXXXXXXXXXXXo ",
"ooooooooooooooooooo ",
"                    "
};
