/* XPM */
static char *noname[] = {
/* width height ncolors chars_per_pixel */
"20 20 3 1",
/* colors */
"  c White",
"X c Black",
"O c None",
/* pixels */
"X  XXOOOOOOOOOOOOOOO",
"X  XXOOOOOOOOOOOOOOO",
"X  XXOOOOOOOOOOOOOOO",
"X  XXOOOOOOOOOOOOOOO",
"X  XXOOOOOOOOOOOOOOO",
"X  XXOOOOOOOOOOOOOOO",
"X  XXOOOOOOOOOOOOOOO",
"X  XXOOOOOOOOOOOOOOO",
"X  XXOOOOOOOOOOOOOOO",
"X  XXOOOOOOOOOOOOOOO",
"X  XXOOOOOOOOOOOOOOO",
"X  XXOOOOOOOOOOOOOOO",
"X  XXOOOOOOOOOOOOOOO",
"X  XXOOOOOOOOOOOOOOO",
"X  XXOOOOOOOOOOOOOOO",
"X  XXXXXXXXXXXXXXXXX",
"X  XXXXXXXXXXXXXXXXX",
"X                   ",
"X                   ",
"XXXXXXXXXXXXXXXXXXXX"
};
