/* XPM */
static char *noname[] = {
/* width height ncolors chars_per_pixel */
"6 20 3 1",
/* colors */
"  c White",
". c #888888",
"X c Black",
/* pixels */
"XXXXXX",
"      ",
"      ",
"      ",
"      ",
"      ",
"      ",
"      ",
"      ",
"      ",
"      ",
"      ",
"      ",
"      ",
"      ",
"      ",
"      ",
"      ",
"......",
"......"
};
