/* XPM */
static char *noname[] = {
/* width height ncolors chars_per_pixel */
"6 20 2 1",
/* colors */
"  c White",
"X c Black",
/* pixels */
"XXXXXX",
"      ",
"      ",
"      ",
"      ",
"      ",
"      ",
"      ",
"      ",
"      ",
"      ",
"      ",
"      ",
"      ",
"      ",
"      ",
"      ",
"      ",
"XXXXXX",
"XXXXXX"
};
